<?xml version="1.0" standalone="no"?>
<!DOCTYPE svg PUBLIC "-//W3C//DTD SVG 20010904//EN"
 "http://www.w3.org/TR/2001/REC-SVG-20010904/DTD/svg10.dtd">
<svg version="1.0" xmlns="http://www.w3.org/2000/svg"
 width="700.000000pt" height="700.000000pt" viewBox="0 0 700.000000 700.000000"
 preserveAspectRatio="xMidYMid meet">
<metadata>
Created by potrace 1.14, written by Peter Selinger 2001-2017
</metadata>
<g transform="translate(0.000000,700.000000) scale(0.100000,-0.100000)"
fill="#000000" stroke="none">
<path d="M3278 6995 c-1 -1 -42 -5 -89 -9 -47 -4 -95 -8 -106 -10 -11 -3 -44
-7 -74 -11 -249 -32 -645 -140 -846 -231 -28 -13 -54 -24 -57 -24 -16 0 -297
-144 -396 -203 -100 -61 -234 -148 -280 -184 -8 -6 -51 -40 -95 -74 -347 -270
-669 -646 -882 -1029 -253 -454 -391 -901 -440 -1425 -15 -158 -8 -586 12
-706 2 -13 6 -46 10 -74 11 -92 16 -119 47 -260 162 -753 585 -1451 1173
-1939 97 -80 97 -80 178 -140 358 -264 794 -467 1237 -575 123 -30 312 -65
400 -75 254 -29 662 -29 860 0 280 41 505 94 725 172 231 82 215 72 191 125
-8 18 -58 136 -111 262 -53 127 -109 259 -125 295 -15 36 -65 153 -110 260
-45 107 -88 209 -95 225 -18 40 -245 574 -255 601 -8 19 2 29 73 80 104 74
265 236 340 340 31 45 79 124 106 175 43 82 61 122 102 227 l9 23 87 -47 c49
-26 102 -55 118 -64 17 -10 75 -41 130 -70 55 -29 119 -63 143 -76 23 -13 86
-47 140 -75 53 -29 111 -60 127 -69 17 -10 80 -43 140 -75 61 -32 115 -61 120
-65 6 -4 55 -31 110 -60 55 -29 152 -81 215 -115 63 -34 160 -86 214 -115 55
-29 134 -72 175 -95 42 -24 79 -41 82 -39 12 7 121 238 169 359 123 309 205
649 237 990 10 104 10 495 0 610 -7 81 -23 206 -31 252 -2 10 -11 59 -21 108
-144 770 -567 1492 -1180 2012 -320 272 -762 519 -1145 642 -19 6 -64 21 -100
32 -36 12 -72 22 -80 24 -8 2 -42 10 -75 19 -70 18 -195 45 -245 52 -41 6 -77
12 -105 18 -11 2 -49 7 -85 10 -36 4 -78 9 -95 12 -33 5 -541 14 -547 9z m188
-2412 c235 -65 389 -220 472 -474 17 -52 35 -119 41 -149 6 -30 13 -68 16 -85
18 -99 25 -446 12 -620 -36 -476 -237 -765 -583 -840 -47 -11 -428 -16 -442
-6 -11 7 -14 197 -13 1092 0 1034 1 1084 18 1097 29 22 385 10 479 -15z"/>
</g>
</svg>
